<svg id="Ebene_1" data-name="Ebene 1" xmlns="http://www.w3.org/2000/svg" width="499.82" height="155.31" viewBox="0 0 499.82 155.31"><defs><style>.cls-1{fill:#7896aa;}.cls-2{fill:#8cbe00;}.cls-3{fill:#fff;}</style></defs><rect class="cls-1" x="91.96" width="145.59" height="155.31"/><path class="cls-1" d="M540.14,253c-5.71,5.3-14.41,7.75-29.23,7.75-2.59,0-5.44-.13-8.43-.27a40.2,40.2,0,0,0-1,8.57c0,9.52,6.26,14.55,13.47,14.55,8.42,0,13.46-2.05,19.85-7.76l4.49,6.54c-6.81,6.92-13.87,10-27.47,10-12.51,0-22.16-9-22.16-24.47,0-13.05,5-28,15-37.12,6.79-6.39,14.13-9.52,22.3-9.52,12.78,0,19.43,6.93,19.43,17.54A19.07,19.07,0,0,1,540.14,253Zm-14.82-23.25c-8.7,0-17.54,8.7-21.07,22.71,1.9.13,4.89.13,6.93.13,12.23,0,17.54-1.76,21.08-5.16a11.83,11.83,0,0,0,3.39-8.3C535.65,234,532.8,229.78,525.32,229.78Z" transform="translate(-257.01 -175.51)"/><path class="cls-1" d="M594.56,233.72a11.94,11.94,0,0,0-4.21-.54c-6.4,0-13.33,5.58-19.85,15.37l-9,42.42H551.19L561,245c2.18-10.2,2.32-14.28.82-19.17l9.93-4.63c2,5,2.17,8.16.54,16.18,6.53-9.92,15.5-15.9,21.89-15.9a15.62,15.62,0,0,1,5,.67Z" transform="translate(-257.01 -175.51)"/><path class="cls-1" d="M635.47,231.27H620.78L612.35,271a34.35,34.35,0,0,0-1,7.34c0,5,2,6.66,6.8,6.66a16.05,16.05,0,0,0,7.07-1.35v6.8a28.76,28.76,0,0,1-12.51,2.71c-7.88,0-12-3.94-12-11a48.23,48.23,0,0,1,1.09-9.93l8.57-40.93h-8.84l1.5-8h9c1.36-5.43,3.12-12,4.76-17.13l11.56-2.45a185.73,185.73,0,0,0-5.58,19.58h16.86Z" transform="translate(-257.01 -175.51)"/><path class="cls-1" d="M688.29,253c-5.72,5.3-14.41,7.75-29.24,7.75-2.58,0-5.43-.13-8.43-.27a40.74,40.74,0,0,0-.94,8.57c0,9.52,6.25,14.55,13.45,14.55,8.43,0,13.46-2.05,19.86-7.76l4.48,6.54c-6.8,6.92-13.87,10-27.46,10-12.51,0-22.17-9-22.17-24.47,0-13.05,5-28,15-37.12,6.8-6.39,14.15-9.52,22.3-9.52,12.78,0,19.44,6.93,19.44,17.54A19.07,19.07,0,0,1,688.29,253Zm-14.82-23.25c-8.7,0-17.54,8.7-21.08,22.71,1.91.13,4.9.13,6.94.13,12.23,0,17.54-1.76,21.07-5.16a11.8,11.8,0,0,0,3.4-8.3C683.8,234,681,229.78,673.47,229.78Z" transform="translate(-257.01 -175.51)"/><path class="cls-1" d="M751.8,235.49a20.46,20.46,0,0,0-13.74-4.76c-5.3,0-10.87,3-14.41,7.62-4.76,6.39-9.52,20.53-9.52,31,0,9.51,4.22,14.68,12.79,14.68,5.44,0,11.14-2.58,16.17-7.34l4.36,6.8c-7.62,6.39-14.14,9-22.58,9-15.09,0-22.16-8-22.16-23,0-15.36,8.29-32.9,17.41-40.24,6.38-5.31,13-7.75,20.25-7.75,6.8,0,12.11,1.9,16.46,5.7Z" transform="translate(-257.01 -175.51)"/><rect class="cls-2" width="93.43" height="155.31"/><path class="cls-3" d="M467,221.89a7,7,0,0,0-1.91,5,6,6,0,0,0,.72,3,29.34,29.34,0,0,0,3.49,4.26,11.79,11.79,0,0,1,2.56,3.61,13,13,0,0,1,.61,4.46c0,6.79-1.82,14.15-5.41,21.86s-7.57,13.37-11.79,16.79-8.2,5.13-11.88,5.13a8.94,8.94,0,0,1-7.15-3.43c-1.94-2.31-2.92-5.71-2.92-10.1A76,76,0,0,1,436,254.79l8.77-34.13-24.92.14H312.77L311.11,227l107.22,0,.59,0c4.39,0,7.39.42,9,1.25a2.51,2.51,0,0,1,1.47,2.39l-.26,1.56-5.42,20.37a70.57,70.57,0,0,0-2.78,17.65c0,7.11,1.87,12.83,5.56,17a18,18,0,0,0,13.93,6.28c6.41,0,12.65-2.5,18.55-7.43,7.32-6,13.05-14.89,17.05-26.36a75.68,75.68,0,0,0,4.61-24.55c0-4.9-.88-8.7-2.62-11.3s-3.92-4-6.35-4A6.24,6.24,0,0,0,467,221.89Zm11,2Z" transform="translate(-257.01 -175.51)"/></svg>
